<svg viewBox="0 0 512 512" xmlns="http://www.w3.org/2000/svg">
  <!-- Background circle -->
  <circle cx="256" cy="240" r="200" fill="#f0f0f0"/>
  
  <!-- Brain icon - 8 organic lobes -->
  <g fill="#222">
    <!-- Top lobe -->
    <path d="M256,100 C290,100 320,120 330,155 C340,190 320,220 290,230 C310,240 320,265 310,290 C300,315 275,325 256,325 C237,325 212,315 202,290 C192,265 202,240 222,230 C192,220 172,190 182,155 C192,120 222,100 256,100Z"/>
    
    <!-- Right lobe -->
    <path d="M340,170 C365,185 380,215 375,245 C370,275 345,300 315,310 C325,330 325,355 310,370 C295,385 270,385 256,375 C242,385 217,385 202,370 C187,355 187,330 197,310 C167,300 142,275 137,245 C132,215 147,185 172,170 C160,150 165,125 180,110 C195,95 220,90 240,95"/>
    
    <!-- Bottom lobe -->
    <path d="M256,345 C280,345 300,355 310,375 C320,395 310,420 290,430 C300,445 295,465 275,475 C255,485 235,475 225,455 C215,475 195,485 175,475 C155,465 150,445 160,430 C140,420 130,395 140,375 C150,355 170,345 256,345Z"/>
    
    <!-- Left lobe -->
    <path d="M172,170 C147,185 132,215 137,245 C142,275 167,300 197,310 C187,330 187,355 202,370 C217,385 242,385 256,375 C270,385 295,385 310,370 C325,355 325,330 315,310 C345,300 370,275 375,245 C380,215 365,185 340,170 C320,150 315,125 300,110 C285,95 260,90 240,95"/>
  </g>
  
  <!-- Center star/flower negative space -->
  <g fill="#f0f0f0">
    <path d="M256,200 L266,230 L296,230 L272,250 L282,280 L256,262 L230,280 L240,250 L216,230 L246,230Z"/>
  </g>
  
  <!-- Radial cuts/gaps between lobes -->
  <g stroke="#f0f0f0" stroke-width="8" stroke-linecap="round">
    <line x1="256" y1="180" x2="256" y2="160"/>
    <line x1="290" y1="195" x2="305" y2="180"/>
    <line x1="310" y1="230" x2="330" y2="230"/>
    <line x1="295" y1="270" x2="310" y2="285"/>
    <line x1="256" y1="290" x2="256" y2="310"/>
    <line x1="217" y1="270" x2="202" y2="285"/>
    <line x1="202" y1="230" x2="182" y2="230"/>
    <line x1="217" y1="195" x2="202" y2="180"/>
  </g>
</svg>
